<?xml version="1.0" encoding="UTF-8"?>
<svg width="211.67mm" height="47.536mm" version="1.1" viewBox="0 0 211.67 47.536" xmlns="http://www.w3.org/2000/svg">
 <defs>
  <style>.cls-1{fill:none;}.cls-2{fill:#ffe121;}</style>
 </defs>
 <g transform="translate(-112473 20623)">
  <g transform="matrix(1.6636 0 0 1.6636 112473 -20623)">
   <g transform="matrix(.26458 0 0 .26458 -32.43 -147.34)">
    <circle class="cls-2" cx="176.57" cy="610.86" r="54" fill="#ffe121"/>
    <path d="m174.14 582.56v36.37a18.19 18.19 0 0 1 0-36.37z"/>
    <path d="m178.99 639.16v-36.37a18.19 18.19 0 0 1 0 36.37z"/>
    <circle cx="187.57" cy="591.13" r="8.57"/>
    <circle cx="165.57" cy="630.59" r="8.57"/>
    <path d="m269.93 623.03c0-3 1.81-5 4.47-5a4.44 4.44 0 0 1 4.66 4.21 5.45 5.45 0 0 1-0.58 2.59 11.87 11.87 0 0 0 6.73 1.81c4.66 0 7.63-2.07 7.63-5.76 0-3.49-3.56-5.18-7.83-6.67-7.89-2.85-13.46-5.37-13.46-13.26 0-6.79 5.5-12.1 14.11-12.1 8 0 14.11 4.08 14.11 9.19 0 3-1.88 4.79-4.34 4.79a4.41 4.41 0 0 1-4.66-4.33 3.82 3.82 0 0 1 0.45-2 10.73 10.73 0 0 0-5.63-1.29c-4.21 0-6.66 2.14-6.66 5.24 0 3.49 3.56 5 7.83 6.6 7.64 2.72 13.39 5.37 13.39 13.27 0 8.09-6.28 12.68-15 12.68-8.43-0.08-15.22-4.8-15.22-9.97z"/>
    <path d="m309.47 628.78a9.13 9.13 0 0 1-1-4.46v-14.56h-5.48v-6h5.5v-6l7-3v9h8.61v6h-8.61v13.2a3.93 3.93 0 0 0 0.45 2.07 3.17 3.17 0 0 0 3 1.36 14.27 14.27 0 0 0 5.57-1.49l-0.58 6.08a15.06 15.06 0 0 1-6.79 1.68c-3.46 0.01-6.25-1.16-7.67-3.88z"/>
    <path d="m327.78 617.98c0-7.77 5.82-14.69 15.08-14.69s15.08 6.79 15.08 14.69-5.82 14.69-15.08 14.69-15.08-6.81-15.08-14.69zm22.91 0c0-5.18-3.24-8.8-7.83-8.8s-7.83 3.62-7.83 8.8 3.24 8.8 7.83 8.8 7.83-3.63 7.83-8.8z"/>
    <path d="m386.67 607.95a4.32 4.32 0 0 1-4.21 4.4 4.42 4.42 0 0 1-4.14-2.52 11.78 11.78 0 0 0-5.63 5.37v11.13h4.92v5.82h-16.18v-5.82h4.21v-16.57h-4.21v-6h11v6.41c2.39-3.82 5.37-6.92 9-6.92s5.24 2.17 5.24 4.7z"/>
    <path d="m396.56 645.03c-3.75 0-6.08-2.2-6.08-4.47a3.36 3.36 0 0 1 3.49-3.62 3.24 3.24 0 0 1 3.11 2.14 4.2 4.2 0 0 0 2.26-1.68 13.24 13.24 0 0 0 1.29-2.2l2.14-4.47-10.1-21h-3.49v-6h14.62v5.63h-4.14l6.53 14.95 6.6-14.95h-4.4v-5.63h14.6v6h-3.43l-13.3 28.13a16.4 16.4 0 0 1-2.2 3.43 9.82 9.82 0 0 1-7.5 3.74z"/>
    <path d="m433.71 629.43-1.55 2.85h-4.79v-41.54h-4.27v-6h11.32v22.13a11.66 11.66 0 0 1 8.35-3.62c7.51 0 13.14 6 13.14 14.56 0 8.22-6 14.82-13.59 14.82a12.93 12.93 0 0 1-8.61-3.2zm14.95-11.52c0-5.44-3.37-8.54-7.51-8.54a10.09 10.09 0 0 0-6.73 2.85v12.17a11.62 11.62 0 0 0 6.73 2.2c3.95-0.01 7.5-3.05 7.5-8.68z"/>
    <path d="m458.87 626.33h4.4v-35.59h-4.4v-6h11.45v41.54h4.21v5.82h-15.66z"/>
    <path d="m477.47 617.98c0-7.77 5.82-14.69 15.08-14.69s15.08 6.79 15.08 14.69-5.82 14.69-15.08 14.69-15.08-6.81-15.08-14.69zm22.91 0c0-5.18-3.24-8.8-7.83-8.8s-7.83 3.62-7.83 8.8 3.24 8.8 7.83 8.8 7.82-3.63 7.82-8.8z"/>
    <path d="m511.71 617.72a14.46 14.46 0 0 1 14.36-14.43c7.77 0 12.88 5 12.88 9.51a4.46 4.46 0 0 1-4.53 4.79 4.31 4.31 0 0 1-4.27-4.27 3.91 3.91 0 0 1 0.91-2.39 6.47 6.47 0 0 0-5-1.94c-3.24 0-7.25 2.65-7.25 8.87 0 5.44 4.14 8.86 9.19 8.86 3.43 0 6.41-1 10.09-3l-0.58 6.34a18.75 18.75 0 0 1-10.09 2.59c-8.98 0.02-15.71-5.79-15.71-14.93z"/>
    <path d="m542.57 626.33h4.21v-35.59h-4.21v-6h11.26v31.77l8.28-7.12h-3.95v-5.63h16.76v6h-5.24l-6.6 5.56 7.18 10.87h4.66v6h-8.86l-8.15-12.75-4.08 3.42v3.62h3.56v5.69h-14.82z"/>
    <path d="m599.14 613.86c-2.26 0-3.82-1.36-3.82-3.49a3.78 3.78 0 0 1 0.13-1.23 11.36 11.36 0 0 0-4-0.71c-3.17 0-4.72 1.42-4.72 2.91s1.62 2.46 6 3.62c6.79 1.81 10.74 3.49 10.74 8.61 0 6-5.57 9.12-12 9.12-4.33 0-9-1.55-10.87-3.43a5 5 0 0 1-1.62-3.82 3.73 3.73 0 0 1 3.75-3.82 3.65 3.65 0 0 1 3.82 3.75 7.11 7.11 0 0 1-0.13 1.16 14.17 14.17 0 0 0 5.11 0.91c2.85 0 5.18-1 5.18-3 0-1.42-1.23-2.26-5.56-3.43-7.83-2.07-11.13-3.95-11.13-8.8 0-4.4 3.62-9 11.58-9 3.43 0 7.57 1.29 9.51 3.24a5 5 0 0 1 1.55 3.62 3.49 3.49 0 0 1-3.52 3.79z"/>
   </g>
  </g>
 </g>
</svg>
